<svg width="54" height="54" viewBox="0 0 54 54" fill="none" xmlns="http://www.w3.org/2000/svg">
<circle cx="27" cy="27" r="27" transform="matrix(-1 0 0 1 54 0)" fill="#FF8A00"/>
<path d="M31.7075 17.7421C31.8697 17.904 31.9984 18.0963 32.0862 18.308C32.174 18.5197 32.2192 18.7467 32.2192 18.9759C32.2192 19.2051 32.174 19.432 32.0862 19.6437C31.9984 19.8554 31.8697 20.0477 31.7075 20.2096L24.9175 26.9996L31.7075 33.7896C32.0347 34.1168 32.2185 34.5606 32.2185 35.0234C32.2185 35.4861 32.0347 35.9299 31.7075 36.2571C31.3802 36.5843 30.9365 36.7681 30.4737 36.7681C30.011 36.7681 29.5672 36.5843 29.24 36.2571L21.2075 28.2246C21.0452 28.0627 20.9165 27.8704 20.8287 27.6587C20.7409 27.447 20.6957 27.2201 20.6957 26.9909C20.6957 26.7617 20.7409 26.5347 20.8287 26.323C20.9165 26.1113 21.0452 25.919 21.2075 25.7571L29.24 17.7246C29.905 17.0596 31.025 17.0596 31.7075 17.7421Z" fill="white"/>
</svg>
