<svg width="358" height="43" viewBox="0 0 358 43" fill="none" xmlns="http://www.w3.org/2000/svg">
<path d="M2.55998 32.9998C1.97331 32.9998 1.47998 32.7998 1.07998 32.3998C0.67998 31.9998 0.47998 31.5064 0.47998 30.9198V3.83977C0.47998 3.22643 0.67998 2.7331 1.07998 2.35977C1.47998 1.95977 1.97331 1.75977 2.55998 1.75977H20.64C21.2533 1.75977 21.7466 1.94643 22.12 2.31977C22.4933 2.66643 22.68 3.1331 22.68 3.71976C22.68 4.27976 22.4933 4.7331 22.12 5.07977C21.7466 5.42643 21.2533 5.59976 20.64 5.59976H4.63998V15.3198H16.12C16.7333 15.3198 17.2267 15.5064 17.6 15.8798C17.9733 16.2264 18.16 16.6798 18.16 17.2398C18.16 17.7998 17.9733 18.2664 17.6 18.6398C17.2267 18.9864 16.7333 19.1598 16.12 19.1598H4.63998V30.9198C4.63998 31.5064 4.43998 31.9998 4.03998 32.3998C3.63998 32.7998 3.14665 32.9998 2.55998 32.9998Z" fill="white"/>
<path d="M29.56 19.3198C29.56 17.7198 29.9466 16.2931 30.72 15.0398C31.52 13.7598 32.5867 12.7464 33.92 11.9998C35.2533 11.2531 36.72 10.8798 38.32 10.8798C39.92 10.8798 41.1066 11.1464 41.88 11.6798C42.68 12.1864 42.9867 12.7998 42.8 13.5198C42.72 13.8931 42.56 14.1864 42.32 14.3998C42.1066 14.5864 41.8533 14.7064 41.56 14.7598C41.2667 14.8131 40.9467 14.7998 40.6 14.7198C38.8933 14.3731 37.36 14.3464 36 14.6398C34.64 14.9331 33.56 15.4798 32.76 16.2798C31.9867 17.0798 31.6 18.0931 31.6 19.3198H29.56ZM29.6 32.9998C28.96 32.9998 28.4666 32.8398 28.12 32.5198C27.7733 32.1731 27.6 31.6664 27.6 30.9998V13.1198C27.6 12.4798 27.7733 11.9864 28.12 11.6398C28.4666 11.2931 28.96 11.1198 29.6 11.1198C30.2666 11.1198 30.76 11.2931 31.08 11.6398C31.4266 11.9598 31.6 12.4531 31.6 13.1198V30.9998C31.6 31.6398 31.4266 32.1331 31.08 32.4798C30.76 32.8264 30.2666 32.9998 29.6 32.9998Z" fill="white"/>
<path d="M49.4931 32.9998C48.9064 32.9998 48.4131 32.8131 48.0131 32.4398C47.6398 32.0398 47.4531 31.5464 47.4531 30.9598V13.1598C47.4531 12.5464 47.6398 12.0531 48.0131 11.6798C48.4131 11.3064 48.9064 11.1198 49.4931 11.1198C50.1064 11.1198 50.5998 11.3064 50.9731 11.6798C51.3464 12.0531 51.5331 12.5464 51.5331 13.1598V30.9598C51.5331 31.5464 51.3464 32.0398 50.9731 32.4398C50.5998 32.8131 50.1064 32.9998 49.4931 32.9998ZM49.4931 7.55976C48.7731 7.55976 48.1464 7.30643 47.6131 6.79977C47.1064 6.26643 46.8531 5.63977 46.8531 4.91977C46.8531 4.19977 47.1064 3.58643 47.6131 3.07977C48.1464 2.54643 48.7731 2.27977 49.4931 2.27977C50.2131 2.27977 50.8264 2.54643 51.3331 3.07977C51.8664 3.58643 52.1331 4.19977 52.1331 4.91977C52.1331 5.63977 51.8664 6.26643 51.3331 6.79977C50.8264 7.30643 50.2131 7.55976 49.4931 7.55976Z" fill="white"/>
<path d="M69.4034 33.1598C67.1901 33.1598 65.2168 32.6931 63.4834 31.7598C61.7767 30.7998 60.4301 29.4931 59.4434 27.8398C58.4834 26.1598 58.0034 24.2398 58.0034 22.0798C58.0034 19.8931 58.4568 17.9731 59.3634 16.3198C60.2968 14.6398 61.5768 13.3331 63.2034 12.3998C64.8301 11.4398 66.6967 10.9598 68.8034 10.9598C70.8834 10.9598 72.6701 11.4264 74.1634 12.3598C75.6567 13.2664 76.7901 14.5331 77.5634 16.1598C78.3634 17.7598 78.7634 19.6131 78.7634 21.7198C78.7634 22.2264 78.5901 22.6531 78.2434 22.9998C77.8968 23.3198 77.4567 23.4798 76.9234 23.4798H60.8034V20.2798H76.8034L75.1634 21.3998C75.1367 20.0664 74.8701 18.8798 74.3634 17.8398C73.8568 16.7731 73.1367 15.9331 72.2034 15.3198C71.2701 14.7064 70.1367 14.3998 68.8034 14.3998C67.2834 14.3998 65.9767 14.7331 64.8834 15.3998C63.8167 16.0664 63.0034 16.9864 62.4434 18.1598C61.8834 19.3064 61.6034 20.6131 61.6034 22.0798C61.6034 23.5464 61.9368 24.8531 62.6034 25.9998C63.2701 27.1464 64.1901 28.0531 65.3634 28.7198C66.5368 29.3864 67.8834 29.7198 69.4034 29.7198C70.2301 29.7198 71.0701 29.5731 71.9234 29.2798C72.8034 28.9598 73.5101 28.5998 74.0434 28.1998C74.4434 27.9064 74.8701 27.7598 75.3234 27.7598C75.8034 27.7331 76.2168 27.8664 76.5634 28.1598C77.0167 28.5598 77.2568 28.9998 77.2834 29.4798C77.3101 29.9598 77.0967 30.3731 76.6434 30.7198C75.7367 31.4398 74.6034 32.0264 73.2434 32.4798C71.9101 32.9331 70.6301 33.1598 69.4034 33.1598Z" fill="white"/>
<path d="M102.447 33.0398C101.86 33.0398 101.367 32.8531 100.967 32.4798C100.594 32.0798 100.407 31.5864 100.407 30.9998V21.1598C100.407 19.6398 100.127 18.3998 99.5672 17.4398C99.0072 16.4798 98.2472 15.7731 97.2872 15.3198C96.3538 14.8398 95.2738 14.5998 94.0472 14.5998C92.9272 14.5998 91.9138 14.8264 91.0072 15.2798C90.1005 15.7331 89.3805 16.3464 88.8472 17.1198C88.3138 17.8664 88.0472 18.7331 88.0472 19.7198H85.5272C85.5272 18.0398 85.9272 16.5464 86.7272 15.2398C87.5538 13.9064 88.6738 12.8531 90.0872 12.0798C91.5005 11.3064 93.0872 10.9198 94.8472 10.9198C96.6872 10.9198 98.3272 11.3198 99.7672 12.1198C101.234 12.8931 102.381 14.0398 103.207 15.5598C104.061 17.0798 104.487 18.9464 104.487 21.1598V30.9998C104.487 31.5864 104.287 32.0798 103.887 32.4798C103.514 32.8531 103.034 33.0398 102.447 33.0398ZM86.0072 33.0398C85.4205 33.0398 84.9272 32.8531 84.5272 32.4798C84.1538 32.0798 83.9672 31.5864 83.9672 30.9998V13.1598C83.9672 12.5464 84.1538 12.0531 84.5272 11.6798C84.9272 11.3064 85.4205 11.1198 86.0072 11.1198C86.6205 11.1198 87.1138 11.3064 87.4872 11.6798C87.8605 12.0531 88.0472 12.5464 88.0472 13.1598V30.9998C88.0472 31.5864 87.8605 32.0798 87.4872 32.4798C87.1138 32.8531 86.6205 33.0398 86.0072 33.0398Z" fill="white"/>
<path d="M121.153 33.1598C119.073 33.1598 117.193 32.6798 115.513 31.7198C113.859 30.7331 112.539 29.3998 111.553 27.7198C110.593 26.0398 110.113 24.1464 110.113 22.0398C110.113 19.9331 110.553 18.0531 111.433 16.3998C112.339 14.7198 113.566 13.3998 115.113 12.4398C116.659 11.4531 118.406 10.9598 120.353 10.9598C121.926 10.9598 123.379 11.2931 124.713 11.9598C126.046 12.5998 127.166 13.4798 128.073 14.5998V3.79977C128.073 3.18643 128.259 2.6931 128.633 2.31977C129.033 1.94643 129.526 1.75977 130.113 1.75977C130.726 1.75977 131.219 1.94643 131.593 2.31977C131.966 2.6931 132.153 3.18643 132.153 3.79977V22.0398C132.153 24.1464 131.659 26.0398 130.673 27.7198C129.713 29.3998 128.406 30.7331 126.753 31.7198C125.099 32.6798 123.233 33.1598 121.153 33.1598ZM121.153 29.5598C122.513 29.5598 123.726 29.2398 124.793 28.5998C125.859 27.9331 126.699 27.0264 127.313 25.8798C127.926 24.7331 128.233 23.4531 128.233 22.0398C128.233 20.5998 127.926 19.3198 127.313 18.1998C126.699 17.0798 125.859 16.1998 124.793 15.5598C123.726 14.8931 122.513 14.5598 121.153 14.5598C119.819 14.5598 118.606 14.8931 117.513 15.5598C116.446 16.1998 115.593 17.0798 114.953 18.1998C114.339 19.3198 114.033 20.5998 114.033 22.0398C114.033 23.4531 114.339 24.7331 114.953 25.8798C115.593 27.0264 116.446 27.9331 117.513 28.5998C118.606 29.2398 119.819 29.5598 121.153 29.5598Z" fill="white"/>
<path d="M144.558 32.9998C143.384 32.9998 142.344 32.6798 141.438 32.0398C140.531 31.3998 139.824 30.5331 139.318 29.4398C138.811 28.3198 138.558 27.0398 138.558 25.5998V3.75977C138.558 3.1731 138.744 2.6931 139.118 2.31977C139.491 1.94643 139.971 1.75977 140.558 1.75977C141.144 1.75977 141.624 1.94643 141.998 2.31977C142.371 2.6931 142.558 3.1731 142.558 3.75977V25.5998C142.558 26.5864 142.744 27.3998 143.118 28.0398C143.491 28.6798 143.971 28.9998 144.558 28.9998H145.558C146.091 28.9998 146.518 29.1864 146.838 29.5598C147.184 29.9331 147.358 30.4131 147.358 30.9998C147.358 31.5864 147.104 32.0664 146.598 32.4398C146.091 32.8131 145.438 32.9998 144.638 32.9998H144.558Z" fill="white"/>
<path d="M155.27 42.5998C155.003 42.5998 154.683 42.5198 154.31 42.3598C153.137 41.8264 152.817 40.9864 153.35 39.8398L165.55 12.2798C166.083 11.1598 166.923 10.8398 168.07 11.3198C169.27 11.8264 169.603 12.6664 169.07 13.8398L156.83 41.3598C156.51 42.1864 155.99 42.5998 155.27 42.5998ZM159.99 32.1198C159.483 32.3331 159.003 32.3598 158.55 32.1998C158.123 32.0131 157.777 31.6664 157.51 31.1598L148.35 13.7598C148.083 13.2531 148.043 12.7731 148.23 12.3198C148.443 11.8398 148.803 11.4931 149.31 11.2798C149.817 11.0664 150.297 11.0531 150.75 11.2398C151.203 11.3998 151.55 11.7331 151.79 12.2398L160.55 29.6398C160.817 30.1464 160.91 30.6398 160.83 31.1198C160.777 31.5731 160.497 31.9064 159.99 32.1198Z" fill="white"/>
<path d="M187.111 32.9998C186.525 32.9998 186.031 32.7998 185.631 32.3998C185.231 31.9998 185.031 31.5064 185.031 30.9198V3.83977C185.031 3.22643 185.231 2.7331 185.631 2.35977C186.031 1.95977 186.525 1.75977 187.111 1.75977C187.725 1.75977 188.218 1.95977 188.591 2.35977C188.991 2.7331 189.191 3.22643 189.191 3.83977V15.3198H207.751V3.83977C207.751 3.22643 207.951 2.7331 208.351 2.35977C208.751 1.95977 209.245 1.75977 209.831 1.75977C210.445 1.75977 210.938 1.95977 211.311 2.35977C211.685 2.7331 211.871 3.22643 211.871 3.83977V30.9198C211.871 31.5064 211.685 31.9998 211.311 32.3998C210.938 32.7998 210.445 32.9998 209.831 32.9998C209.245 32.9998 208.751 32.7998 208.351 32.3998C207.951 31.9998 207.751 31.5064 207.751 30.9198V18.9998H189.191V30.9198C189.191 31.5064 188.991 31.9998 188.591 32.3998C188.218 32.7998 187.725 32.9998 187.111 32.9998Z" fill="white"/>
<path d="M229.395 33.1598C227.235 33.1598 225.328 32.6931 223.675 31.7598C222.022 30.7998 220.715 29.4931 219.755 27.8398C218.822 26.1598 218.355 24.2398 218.355 22.0798C218.355 19.8931 218.822 17.9731 219.755 16.3198C220.715 14.6398 222.022 13.3331 223.675 12.3998C225.328 11.4398 227.235 10.9598 229.395 10.9598C231.528 10.9598 233.422 11.4398 235.075 12.3998C236.728 13.3331 238.022 14.6398 238.955 16.3198C239.915 17.9731 240.395 19.8931 240.395 22.0798C240.395 24.2398 239.928 26.1598 238.995 27.8398C238.062 29.4931 236.768 30.7998 235.115 31.7598C233.462 32.6931 231.555 33.1598 229.395 33.1598ZM229.395 29.5598C230.782 29.5598 232.008 29.2398 233.075 28.5998C234.142 27.9598 234.968 27.0798 235.555 25.9598C236.168 24.8398 236.475 23.5464 236.475 22.0798C236.475 20.6131 236.168 19.3198 235.555 18.1998C234.968 17.0531 234.142 16.1598 233.075 15.5198C232.008 14.8798 230.782 14.5598 229.395 14.5598C228.008 14.5598 226.782 14.8798 225.715 15.5198C224.648 16.1598 223.808 17.0531 223.195 18.1998C222.582 19.3198 222.275 20.6131 222.275 22.0798C222.275 23.5464 222.582 24.8398 223.195 25.9598C223.808 27.0798 224.648 27.9598 225.715 28.5998C226.782 29.2398 228.008 29.5598 229.395 29.5598Z" fill="white"/>
<path d="M255.667 33.1998C253.827 33.1998 252.174 32.8131 250.707 32.0398C249.267 31.2398 248.12 30.0798 247.267 28.5598C246.441 27.0398 246.027 25.1731 246.027 22.9598V13.1198C246.027 12.5331 246.214 12.0531 246.587 11.6798C246.987 11.2798 247.48 11.0798 248.067 11.0798C248.654 11.0798 249.134 11.2798 249.507 11.6798C249.907 12.0531 250.107 12.5331 250.107 13.1198V22.9598C250.107 24.4531 250.387 25.6931 250.947 26.6798C251.507 27.6398 252.267 28.3598 253.227 28.8398C254.187 29.2931 255.267 29.5198 256.467 29.5198C257.614 29.5198 258.627 29.2931 259.507 28.8398C260.414 28.3864 261.134 27.7731 261.667 26.9998C262.2 26.2264 262.467 25.3598 262.467 24.3998H264.987C264.987 26.0531 264.574 27.5464 263.747 28.8798C262.947 30.2131 261.84 31.2664 260.427 32.0398C259.04 32.8131 257.454 33.1998 255.667 33.1998ZM264.507 32.9998C263.921 32.9998 263.427 32.8131 263.027 32.4398C262.654 32.0398 262.467 31.5464 262.467 30.9598V13.1198C262.467 12.5064 262.654 12.0131 263.027 11.6398C263.427 11.2664 263.921 11.0798 264.507 11.0798C265.121 11.0798 265.614 11.2664 265.987 11.6398C266.36 12.0131 266.547 12.5064 266.547 13.1198V30.9598C266.547 31.5464 266.36 32.0398 265.987 32.4398C265.614 32.8131 265.121 32.9998 264.507 32.9998Z" fill="white"/>
<path d="M281.693 33.1598C279.826 33.1598 278.093 32.8798 276.493 32.3198C274.919 31.7331 273.693 30.9998 272.813 30.1198C272.413 29.6931 272.239 29.2131 272.293 28.6798C272.373 28.1198 272.639 27.6664 273.093 27.3198C273.626 26.8931 274.146 26.7198 274.653 26.7998C275.186 26.8531 275.639 27.0798 276.013 27.4798C276.466 27.9864 277.186 28.4664 278.173 28.9198C279.186 29.3464 280.306 29.5598 281.533 29.5598C283.079 29.5598 284.253 29.3064 285.053 28.7998C285.879 28.2931 286.306 27.6398 286.333 26.8398C286.359 26.0398 285.973 25.3464 285.173 24.7598C284.399 24.1731 282.973 23.6931 280.893 23.3198C278.199 22.7864 276.239 21.9864 275.013 20.9198C273.813 19.8531 273.213 18.5464 273.213 16.9998C273.213 15.6398 273.613 14.5198 274.413 13.6398C275.213 12.7331 276.239 12.0664 277.493 11.6398C278.746 11.1864 280.053 10.9598 281.413 10.9598C283.173 10.9598 284.733 11.2398 286.093 11.7998C287.453 12.3598 288.533 13.1331 289.333 14.1198C289.706 14.5464 289.879 14.9998 289.853 15.4798C289.826 15.9331 289.599 16.3198 289.173 16.6398C288.746 16.9331 288.239 17.0264 287.653 16.9198C287.066 16.8131 286.573 16.5731 286.173 16.1998C285.506 15.5598 284.786 15.1198 284.013 14.8798C283.239 14.6398 282.346 14.5198 281.333 14.5198C280.159 14.5198 279.159 14.7198 278.333 15.1198C277.533 15.5198 277.133 16.1064 277.133 16.8798C277.133 17.3598 277.253 17.7998 277.493 18.1998C277.759 18.5731 278.266 18.9198 279.013 19.2398C279.759 19.5331 280.853 19.8264 282.293 20.1198C284.293 20.5198 285.866 21.0264 287.013 21.6398C288.186 22.2531 289.026 22.9731 289.533 23.7998C290.039 24.5998 290.293 25.5331 290.293 26.5998C290.293 27.8264 289.959 28.9331 289.293 29.9198C288.653 30.9064 287.693 31.6931 286.413 32.2798C285.159 32.8664 283.586 33.1598 281.693 33.1598Z" fill="white"/>
<path d="M305.732 33.1598C303.518 33.1598 301.545 32.6931 299.812 31.7598C298.105 30.7998 296.758 29.4931 295.772 27.8398C294.812 26.1598 294.332 24.2398 294.332 22.0798C294.332 19.8931 294.785 17.9731 295.692 16.3198C296.625 14.6398 297.905 13.3331 299.532 12.3998C301.158 11.4398 303.025 10.9598 305.132 10.9598C307.212 10.9598 308.998 11.4264 310.492 12.3598C311.985 13.2664 313.118 14.5331 313.892 16.1598C314.692 17.7598 315.092 19.6131 315.092 21.7198C315.092 22.2264 314.918 22.6531 314.572 22.9998C314.225 23.3198 313.785 23.4798 313.252 23.4798H297.132V20.2798H313.132L311.492 21.3998C311.465 20.0664 311.198 18.8798 310.692 17.8398C310.185 16.7731 309.465 15.9331 308.532 15.3198C307.598 14.7064 306.465 14.3998 305.132 14.3998C303.612 14.3998 302.305 14.7331 301.212 15.3998C300.145 16.0664 299.332 16.9864 298.772 18.1598C298.212 19.3064 297.932 20.6131 297.932 22.0798C297.932 23.5464 298.265 24.8531 298.932 25.9998C299.598 27.1464 300.518 28.0531 301.692 28.7198C302.865 29.3864 304.212 29.7198 305.732 29.7198C306.558 29.7198 307.398 29.5731 308.252 29.2798C309.132 28.9598 309.838 28.5998 310.372 28.1998C310.772 27.9064 311.198 27.7598 311.652 27.7598C312.132 27.7331 312.545 27.8664 312.892 28.1598C313.345 28.5598 313.585 28.9998 313.612 29.4798C313.638 29.9598 313.425 30.3731 312.972 30.7198C312.065 31.4398 310.932 32.0264 309.572 32.4798C308.238 32.9331 306.958 33.1598 305.732 33.1598Z" fill="white"/>
<g clip-path="url(#clip0_44_369)">
<path d="M340.338 26.6711C339.678 26.1941 339.292 25.7109 339.157 25.1932C338.657 23.2604 337.043 21.8496 335.231 21.8496C333.42 21.8496 331.745 23.2604 331.245 25.1941C331.11 25.7099 330.725 26.1941 330.064 26.6718C329.26 27.2544 328.892 28.1552 329.104 29.0239C329.359 30.0691 330.519 30.9986 332.107 30.9986C332.778 30.9986 333.415 30.8264 333.949 30.5012C334.304 30.2838 334.786 30.1687 335.23 30.1687C335.673 30.1687 336.094 30.2831 336.453 30.5002C336.989 30.8273 337.622 31.0002 338.287 31.0002C339.874 31.0002 341.042 30.0755 341.298 29.0242C341.51 28.1552 341.141 27.2534 340.338 26.6711Z" fill="#FF8A00"/>
<path d="M330.631 21.8492C330.631 20.7986 329.801 19.1255 328.816 19.1255C327.831 19.1255 327 20.7986 327 21.8492C327 22.8501 327.815 23.6648 328.816 23.6648C329.817 23.6648 330.631 22.8501 330.631 21.8492Z" fill="#FF8A00"/>
<path d="M341.586 19.1255C340.602 19.1255 339.771 20.7986 339.771 21.8492C339.771 22.8501 340.585 23.6648 341.586 23.6648C342.587 23.6648 343.402 22.8501 343.402 21.8492C343.402 20.7986 342.571 19.1255 341.586 19.1255Z" fill="#FF8A00"/>
<path d="M336.139 18.2176C336.139 19.2187 336.954 20.0335 337.955 20.0335C338.956 20.0335 339.771 19.2187 339.771 18.2176C339.771 17.167 338.94 15.4941 337.955 15.4941C336.97 15.4941 336.139 17.167 336.139 18.2176Z" fill="#FF8A00"/>
<path d="M332.447 20.0335C333.448 20.0335 334.263 19.2187 334.263 18.2176C334.263 17.167 333.432 15.4941 332.447 15.4941C331.462 15.4941 330.631 17.167 330.631 18.2176C330.631 19.2187 331.446 20.0335 332.447 20.0335Z" fill="#FF8A00"/>
<path d="M354.924 11.1765C354.264 10.6995 353.878 10.1557 353.744 9.63799C353.244 7.70522 351.569 6.35498 349.757 6.35498C347.946 6.35498 346.331 7.70522 345.831 9.63894C345.697 10.155 345.311 10.6995 344.65 11.1774C343.846 11.76 343.478 12.6606 343.69 13.5295C343.945 14.5745 345.106 15.5039 346.693 15.5039C347.364 15.5039 348.002 15.332 348.536 15.0066C348.89 14.7892 349.312 14.674 349.755 14.674C350.199 14.674 350.68 14.7885 351.039 15.0056C351.575 15.3327 352.209 15.5058 352.874 15.5058C354.46 15.5058 355.628 14.5808 355.885 13.5295C356.097 12.6606 355.728 11.759 354.924 11.1765Z" fill="#FF8A00"/>
<path d="M345.218 6.35501C345.218 5.30443 344.387 3.63135 343.402 3.63135C342.417 3.63135 341.586 5.30443 341.586 6.35501C341.586 7.35593 342.401 8.17071 343.402 8.17071C344.403 8.17071 345.218 7.35593 345.218 6.35501Z" fill="#FF8A00"/>
<path d="M356.173 3.63135C355.188 3.63135 354.357 5.30443 354.357 6.35501C354.357 7.35593 355.172 8.17071 356.173 8.17071C357.174 8.17071 357.989 7.35593 357.989 6.35501C357.989 5.30443 357.158 3.63135 356.173 3.63135Z" fill="#FF8A00"/>
<path d="M350.726 2.72366C350.726 3.72458 351.54 4.53936 352.541 4.53936C353.542 4.53936 354.357 3.72458 354.357 2.72366C354.357 1.67308 353.526 0 352.541 0C351.556 0 350.726 1.67308 350.726 2.72366Z" fill="#FF8A00"/>
<path d="M345.218 2.72366C345.218 3.72458 346.033 4.53936 347.034 4.53936C348.035 4.53936 348.849 3.72458 348.849 2.72366C348.849 1.67308 348.018 0 347.034 0C346.049 0 345.218 1.67308 345.218 2.72366Z" fill="#FF8A00"/>
</g>
<defs>
<clipPath id="clip0_44_369">
<rect width="31" height="31" fill="white" transform="translate(327)"/>
</clipPath>
</defs>
</svg>
