<svg width="111" height="96" viewBox="0 0 111 96" fill="none" xmlns="http://www.w3.org/2000/svg">
<g filter="url(#filter0_d_44_273)">
<path d="M79.6828 52.4029C72.8884 44.1983 64.3003 39.6797 55.5 39.6797C46.6997 39.6797 38.1115 44.1983 31.3175 52.4029C25.2104 59.7777 21.5645 69.0721 21.5645 77.2653C21.5645 81.2453 22.7811 84.2769 25.1803 86.2762C27.5483 88.2496 30.6747 88.9172 34.1626 88.917C37.874 88.917 41.995 88.1611 46.0441 87.4182C49.5823 86.769 52.9243 86.1559 55.5002 86.1559C57.7234 86.1559 60.8581 86.7378 64.1762 87.3539C71.931 88.7939 80.7206 90.4257 85.7981 86.2034C88.2118 84.1962 89.4357 81.1889 89.4357 77.2653C89.4359 69.0721 85.79 59.7777 79.6828 52.4029Z" fill="#FF8A00"/>
<path d="M80.3774 7.85106C77.8915 4.18527 74.3317 2.08301 70.6109 2.08301C66.8898 2.08301 63.3303 4.18547 60.8443 7.85106C58.5607 11.2186 57.3029 15.6409 57.3029 20.3034C57.3029 24.966 58.5605 29.3883 60.8443 32.7558C63.3303 36.4214 66.89 38.5239 70.6109 38.5239C74.3319 38.5239 77.8915 36.4214 80.3774 32.7558C82.661 29.3883 83.9188 24.966 83.9188 20.3034C83.9188 15.6409 82.6612 11.2184 80.3774 7.85106Z" fill="#FF8A00"/>
<path d="M50.1559 7.85081C47.6699 4.18502 44.1104 2.08276 40.3893 2.08276C36.6683 2.08276 33.1086 4.18522 30.6228 7.85081C28.3392 11.2183 27.0814 15.6406 27.0814 20.3032C27.0814 24.9658 28.339 29.3881 30.6228 32.7556C33.1088 36.4214 36.6683 38.5238 40.3893 38.5238C44.1104 38.5238 47.6699 36.4214 50.1559 32.7556C52.4395 29.3881 53.6973 24.966 53.6973 20.3032C53.6971 15.6406 52.4395 11.2181 50.1559 7.85081Z" fill="#FF8A00"/>
<path d="M105.405 36.452C104.402 33.0425 102.254 30.565 99.3563 29.4763C97.0242 28.6002 94.3916 28.7488 91.9435 29.8947C88.5698 31.4736 85.8123 34.734 84.3784 38.8397C83.2066 42.1948 83.0604 45.741 83.9671 48.8257C84.9693 52.2352 87.1174 54.7127 90.0156 55.8014C91.0185 56.1782 92.0767 56.3654 93.152 56.3654C94.5774 56.3654 96.033 56.0361 97.4285 55.383C100.802 53.8041 103.56 50.5437 104.994 46.4382V46.438C106.165 43.0831 106.311 39.5366 105.405 36.452Z" fill="#FF8A00"/>
<path d="M26.6221 38.8392C25.188 34.7335 22.4304 31.4733 19.0569 29.8944C16.6086 28.7484 13.9759 28.6001 11.6439 29.476C8.74575 30.5649 6.59765 33.0423 5.59549 36.4517C4.68879 39.5363 4.83495 43.0827 6.00673 46.4376V46.4378C7.44103 50.5435 10.1984 53.8037 13.5719 55.3826C14.9676 56.0358 16.423 56.365 17.8484 56.365C18.9237 56.365 19.9821 56.1776 20.9848 55.801C23.8834 54.7121 26.0313 52.2347 27.0335 48.8253C27.9398 45.7409 27.7936 42.1945 26.6221 38.8392Z" fill="#FF8A00"/>
</g>
<defs>
<filter id="filter0_d_44_273" x="-0.992325" y="0.0827637" width="112.985" height="98.8342" filterUnits="userSpaceOnUse" color-interpolation-filters="sRGB">
<feFlood flood-opacity="0" result="BackgroundImageFix"/>
<feColorMatrix in="SourceAlpha" type="matrix" values="0 0 0 0 0 0 0 0 0 0 0 0 0 0 0 0 0 0 127 0" result="hardAlpha"/>
<feOffset dy="4"/>
<feGaussianBlur stdDeviation="3"/>
<feComposite in2="hardAlpha" operator="out"/>
<feColorMatrix type="matrix" values="0 0 0 0 0 0 0 0 0 0 0 0 0 0 0 0 0 0 0.25 0"/>
<feBlend mode="normal" in2="BackgroundImageFix" result="effect1_dropShadow_44_273"/>
<feBlend mode="normal" in="SourceGraphic" in2="effect1_dropShadow_44_273" result="shape"/>
</filter>
</defs>
</svg>
