<svg width="39" height="59" viewBox="0 0 39 59" fill="none" xmlns="http://www.w3.org/2000/svg">
<path d="M2.12647 29.9387C-4.46096 16.2184 5.07344 0 19.4997 0C33.9238 0 43.4625 16.2162 36.8729 29.9387L36.8619 29.963L36.8511 29.9873L26.0083 54.5964C23.4224 60.4646 15.5814 60.4712 12.991 54.5964L2.1505 29.9873L2.13955 29.963L2.12647 29.9387ZM27.7345 20.6146C27.7345 15.9338 24.1094 12.0033 19.4997 12.0033C14.89 12.0033 11.2649 15.9338 11.2649 20.6146C11.2649 25.2933 14.89 29.2238 19.4997 29.2238C24.1094 29.2238 27.7345 25.2933 27.7345 20.6146Z" fill="#FF8A00"/>
</svg>
