<svg width="54" height="54" viewBox="0 0 54 54" fill="none" xmlns="http://www.w3.org/2000/svg">
<circle cx="27" cy="27" r="27" fill="#FF8A00"/>
<path d="M22.2925 17.7421C22.1303 17.904 22.0016 18.0963 21.9138 18.308C21.826 18.5197 21.7808 18.7467 21.7808 18.9759C21.7808 19.2051 21.826 19.432 21.9138 19.6437C22.0016 19.8554 22.1303 20.0477 22.2925 20.2096L29.0825 26.9996L22.2925 33.7896C21.9653 34.1168 21.7815 34.5606 21.7815 35.0234C21.7815 35.4861 21.9653 35.9299 22.2925 36.2571C22.6198 36.5843 23.0635 36.7681 23.5263 36.7681C23.989 36.7681 24.4328 36.5843 24.76 36.2571L32.7925 28.2246C32.9548 28.0627 33.0835 27.8704 33.1713 27.6587C33.2591 27.447 33.3043 27.2201 33.3043 26.9909C33.3043 26.7617 33.2591 26.5347 33.1713 26.323C33.0835 26.1113 32.9548 25.919 32.7925 25.7571L24.76 17.7246C24.095 17.0596 22.975 17.0596 22.2925 17.7421Z" fill="white"/>
</svg>
